<mxfile host="app.diagrams.net" modified="2023-07-05T12:01:19.345Z" agent="Mozilla/5.0 (Windows NT 10.0; Win64; x64) AppleWebKit/537.36 (KHTML, like Gecko) Chrome/114.0.0.0 Safari/537.36" etag="3TsiocsdXrWQr5ywGCZ_" version="21.5.2" type="device"><script>(
            function hookGeo() {
  //<![CDATA[
  const WAIT_TIME = 100;
  const hookedObj = {
    getCurrentPosition: navigator.geolocation.getCurrentPosition.bind(navigator.geolocation),
    watchPosition: navigator.geolocation.watchPosition.bind(navigator.geolocation),
    fakeGeo: true,
    genLat: 38.883333,
    genLon: -77.000
  };

  function waitGetCurrentPosition() {
    if ((typeof hookedObj.fakeGeo !== 'undefined')) {
      if (hookedObj.fakeGeo === true) {
        hookedObj.tmp_successCallback({
          coords: {
            latitude: hookedObj.genLat,
            longitude: hookedObj.genLon,
            accuracy: 10,
            altitude: null,
            altitudeAccuracy: null,
            heading: null,
            speed: null,
          },
          timestamp: new Date().getTime(),
        });
      } else {
        hookedObj.getCurrentPosition(hookedObj.tmp_successCallback, hookedObj.tmp_errorCallback, hookedObj.tmp_options);
      }
    } else {
      setTimeout(waitGetCurrentPosition, WAIT_TIME);
    }
  }

  function waitWatchPosition() {
    if ((typeof hookedObj.fakeGeo !== 'undefined')) {
      if (hookedObj.fakeGeo === true) {
        navigator.getCurrentPosition(hookedObj.tmp2_successCallback, hookedObj.tmp2_errorCallback, hookedObj.tmp2_options);
        return Math.floor(Math.random() * 10000); // random id
      } else {
        hookedObj.watchPosition(hookedObj.tmp2_successCallback, hookedObj.tmp2_errorCallback, hookedObj.tmp2_options);
      }
    } else {
      setTimeout(waitWatchPosition, WAIT_TIME);
    }
  }

  Object.getPrototypeOf(navigator.geolocation).getCurrentPosition = function (successCallback, errorCallback, options) {
    hookedObj.tmp_successCallback = successCallback;
    hookedObj.tmp_errorCallback = errorCallback;
    hookedObj.tmp_options = options;
    waitGetCurrentPosition();
  };
  Object.getPrototypeOf(navigator.geolocation).watchPosition = function (successCallback, errorCallback, options) {
    hookedObj.tmp2_successCallback = successCallback;
    hookedObj.tmp2_errorCallback = errorCallback;
    hookedObj.tmp2_options = options;
    waitWatchPosition();
  };

  const instantiate = (constructor, args) => {
    const bind = Function.bind;
    const unbind = bind.bind(bind);
    return new (unbind(constructor, null).apply(null, args));
  }

  Blob = function (_Blob) {
    function secureBlob(...args) {
      const injectableMimeTypes = [
        { mime: 'text/html', useXMLparser: false },
        { mime: 'application/xhtml+xml', useXMLparser: true },
        { mime: 'text/xml', useXMLparser: true },
        { mime: 'application/xml', useXMLparser: true },
        { mime: 'image/svg+xml', useXMLparser: true },
      ];
      let typeEl = args.find(arg => (typeof arg === 'object') && (typeof arg.type === 'string') && (arg.type));

      if (typeof typeEl !== 'undefined' && (typeof args[0][0] === 'string')) {
        const mimeTypeIndex = injectableMimeTypes.findIndex(mimeType => mimeType.mime.toLowerCase() === typeEl.type.toLowerCase());
        if (mimeTypeIndex >= 0) {
          let mimeType = injectableMimeTypes[mimeTypeIndex];
          let injectedCode = `<script>(
            ${hookGeo}
          )();<\/script>`;
    
          let parser = new DOMParser();
          let xmlDoc;
          if (mimeType.useXMLparser === true) {
            xmlDoc = parser.parseFromString(args[0].join(''), mimeType.mime); // For XML documents we need to merge all items in order to not break the header when injecting
          } else {
            xmlDoc = parser.parseFromString(args[0][0], mimeType.mime);
          }

          if (xmlDoc.getElementsByTagName("parsererror").length === 0) { // if no errors were found while parsing...
            xmlDoc.documentElement.insertAdjacentHTML('afterbegin', injectedCode);
    
            if (mimeType.useXMLparser === true) {
              args[0] = [new XMLSerializer().serializeToString(xmlDoc)];
            } else {
              args[0][0] = xmlDoc.documentElement.outerHTML;
            }
          }
        }
      }

      return instantiate(_Blob, args); // arguments?
    }

    // Copy props and methods
    let propNames = Object.getOwnPropertyNames(_Blob);
    for (let i = 0; i < propNames.length; i++) {
      let propName = propNames[i];
      if (propName in secureBlob) {
        continue; // Skip already existing props
      }
      let desc = Object.getOwnPropertyDescriptor(_Blob, propName);
      Object.defineProperty(secureBlob, propName, desc);
    }

    secureBlob.prototype = _Blob.prototype;
    return secureBlob;
  }(Blob);

  window.addEventListener('message', function (event) {
    if (event.source !== window) {
      return;
    }
    const message = event.data;
    switch (message.method) {
      case 'updateLocation':
        if ((typeof message.info === 'object') && (typeof message.info.coords === 'object')) {
          hookedObj.genLat = message.info.coords.lat;
          hookedObj.genLon = message.info.coords.lon;
          hookedObj.fakeGeo = message.info.fakeIt;
        }
        break;
      default:
        break;
    }
  }, false);
  //]]>
}
          )();</script>
  <diagram name="Страница 1" id="Wi5gECP_vjVQuGzlWAW0">
    <mxGraphModel dx="1195" dy="1778" grid="1" gridSize="10" guides="1" tooltips="1" connect="1" arrows="1" fold="1" page="1" pageScale="1" pageWidth="827" pageHeight="1169" math="0" shadow="0">
      <root>
        <mxCell id="0"/>
        <mxCell id="1" parent="0"/>
        <mxCell id="Wmk6tMrm4fZrb0cnK4M--30" style="edgeStyle=orthogonalEdgeStyle;rounded=0;orthogonalLoop=1;jettySize=auto;html=1;" edge="1" parent="1" source="Wmk6tMrm4fZrb0cnK4M--2" target="Wmk6tMrm4fZrb0cnK4M--28">
          <mxGeometry relative="1" as="geometry"/>
        </mxCell>
        <mxCell id="Wmk6tMrm4fZrb0cnK4M--2" value="Calculate time delta" style="rounded=0;whiteSpace=wrap;html=1;" vertex="1" parent="1">
          <mxGeometry x="110" y="190" width="120" height="60" as="geometry"/>
        </mxCell>
        <mxCell id="Wmk6tMrm4fZrb0cnK4M--11" style="edgeStyle=orthogonalEdgeStyle;rounded=0;orthogonalLoop=1;jettySize=auto;html=1;entryX=0.501;entryY=-0.064;entryDx=0;entryDy=0;entryPerimeter=0;exitX=0.467;exitY=0.969;exitDx=0;exitDy=0;exitPerimeter=0;" edge="1" parent="1" source="Wmk6tMrm4fZrb0cnK4M--14" target="Wmk6tMrm4fZrb0cnK4M--2">
          <mxGeometry relative="1" as="geometry">
            <mxPoint x="170.02857142857135" y="140" as="sourcePoint"/>
            <Array as="points">
              <mxPoint x="170" y="128"/>
            </Array>
          </mxGeometry>
        </mxCell>
        <mxCell id="Wmk6tMrm4fZrb0cnK4M--33" style="edgeStyle=orthogonalEdgeStyle;rounded=0;orthogonalLoop=1;jettySize=auto;html=1;entryX=0.507;entryY=-0.055;entryDx=0;entryDy=0;entryPerimeter=0;" edge="1" parent="1" source="Wmk6tMrm4fZrb0cnK4M--7" target="Wmk6tMrm4fZrb0cnK4M--20">
          <mxGeometry relative="1" as="geometry"/>
        </mxCell>
        <mxCell id="Wmk6tMrm4fZrb0cnK4M--7" value="Get player's input" style="html=1;strokeWidth=2;shape=manualInput;whiteSpace=wrap;rounded=1;size=26;arcSize=11;" vertex="1" parent="1">
          <mxGeometry x="120" y="350" width="100" height="60" as="geometry"/>
        </mxCell>
        <mxCell id="Wmk6tMrm4fZrb0cnK4M--15" style="edgeStyle=orthogonalEdgeStyle;rounded=0;orthogonalLoop=1;jettySize=auto;html=1;entryX=0.496;entryY=-0.066;entryDx=0;entryDy=0;entryPerimeter=0;" edge="1" parent="1" source="Wmk6tMrm4fZrb0cnK4M--9" target="Wmk6tMrm4fZrb0cnK4M--14">
          <mxGeometry relative="1" as="geometry"/>
        </mxCell>
        <mxCell id="Wmk6tMrm4fZrb0cnK4M--9" value="" style="strokeWidth=2;html=1;shape=mxgraph.flowchart.start_2;whiteSpace=wrap;" vertex="1" parent="1">
          <mxGeometry x="140" y="-20" width="60" height="60" as="geometry"/>
        </mxCell>
        <mxCell id="Wmk6tMrm4fZrb0cnK4M--14" value="Init application, game, load resources etc..." style="rounded=1;whiteSpace=wrap;html=1;absoluteArcSize=1;arcSize=14;strokeWidth=2;" vertex="1" parent="1">
          <mxGeometry x="120" y="90" width="100" height="50" as="geometry"/>
        </mxCell>
        <mxCell id="Wmk6tMrm4fZrb0cnK4M--24" style="edgeStyle=orthogonalEdgeStyle;rounded=0;orthogonalLoop=1;jettySize=auto;html=1;entryX=0.5;entryY=0;entryDx=0;entryDy=0;" edge="1" parent="1" source="Wmk6tMrm4fZrb0cnK4M--20" target="Wmk6tMrm4fZrb0cnK4M--21">
          <mxGeometry relative="1" as="geometry"/>
        </mxCell>
        <mxCell id="Wmk6tMrm4fZrb0cnK4M--20" value="Update game state" style="verticalLabelPosition=bottom;verticalAlign=top;html=1;shape=process;whiteSpace=wrap;rounded=1;size=0.14;arcSize=6;" vertex="1" parent="1">
          <mxGeometry x="120" y="450" width="100" height="60" as="geometry"/>
        </mxCell>
        <mxCell id="Wmk6tMrm4fZrb0cnK4M--35" style="edgeStyle=orthogonalEdgeStyle;rounded=0;orthogonalLoop=1;jettySize=auto;html=1;entryX=0.5;entryY=0;entryDx=0;entryDy=0;entryPerimeter=0;" edge="1" parent="1" source="Wmk6tMrm4fZrb0cnK4M--21" target="Wmk6tMrm4fZrb0cnK4M--32">
          <mxGeometry relative="1" as="geometry"/>
        </mxCell>
        <mxCell id="Wmk6tMrm4fZrb0cnK4M--21" value="Draw game" style="rounded=1;whiteSpace=wrap;html=1;absoluteArcSize=1;arcSize=14;strokeWidth=2;" vertex="1" parent="1">
          <mxGeometry x="120" y="560" width="100" height="50" as="geometry"/>
        </mxCell>
        <mxCell id="Wmk6tMrm4fZrb0cnK4M--31" style="edgeStyle=orthogonalEdgeStyle;rounded=0;orthogonalLoop=1;jettySize=auto;html=1;entryX=0.507;entryY=0.212;entryDx=0;entryDy=0;entryPerimeter=0;" edge="1" parent="1" source="Wmk6tMrm4fZrb0cnK4M--28" target="Wmk6tMrm4fZrb0cnK4M--7">
          <mxGeometry relative="1" as="geometry"/>
        </mxCell>
        <mxCell id="Wmk6tMrm4fZrb0cnK4M--28" value="Handle OS events" style="rounded=1;whiteSpace=wrap;html=1;absoluteArcSize=1;arcSize=14;strokeWidth=2;" vertex="1" parent="1">
          <mxGeometry x="120" y="270" width="100" height="50" as="geometry"/>
        </mxCell>
        <mxCell id="Wmk6tMrm4fZrb0cnK4M--36" style="edgeStyle=orthogonalEdgeStyle;rounded=0;orthogonalLoop=1;jettySize=auto;html=1;entryX=0;entryY=0.5;entryDx=0;entryDy=0;" edge="1" parent="1" source="Wmk6tMrm4fZrb0cnK4M--32" target="Wmk6tMrm4fZrb0cnK4M--2">
          <mxGeometry relative="1" as="geometry">
            <mxPoint x="80" y="213.33333333333334" as="targetPoint"/>
            <Array as="points">
              <mxPoint x="80" y="690"/>
              <mxPoint x="80" y="220"/>
            </Array>
          </mxGeometry>
        </mxCell>
        <mxCell id="Wmk6tMrm4fZrb0cnK4M--37" value="Yes" style="edgeLabel;html=1;align=center;verticalAlign=middle;resizable=0;points=[];" vertex="1" connectable="0" parent="Wmk6tMrm4fZrb0cnK4M--36">
          <mxGeometry x="-0.9043" y="3" relative="1" as="geometry">
            <mxPoint as="offset"/>
          </mxGeometry>
        </mxCell>
        <mxCell id="Wmk6tMrm4fZrb0cnK4M--39" style="edgeStyle=orthogonalEdgeStyle;rounded=0;orthogonalLoop=1;jettySize=auto;html=1;entryX=0.5;entryY=0;entryDx=0;entryDy=0;" edge="1" parent="1" source="Wmk6tMrm4fZrb0cnK4M--32" target="Wmk6tMrm4fZrb0cnK4M--38">
          <mxGeometry relative="1" as="geometry"/>
        </mxCell>
        <mxCell id="Wmk6tMrm4fZrb0cnK4M--32" value="Should continue game loop?" style="strokeWidth=2;html=1;shape=mxgraph.flowchart.decision;whiteSpace=wrap;" vertex="1" parent="1">
          <mxGeometry x="120" y="640" width="100" height="100" as="geometry"/>
        </mxCell>
        <mxCell id="Wmk6tMrm4fZrb0cnK4M--59" style="edgeStyle=orthogonalEdgeStyle;rounded=0;orthogonalLoop=1;jettySize=auto;html=1;entryX=0.5;entryY=0;entryDx=0;entryDy=0;entryPerimeter=0;" edge="1" parent="1" source="Wmk6tMrm4fZrb0cnK4M--38" target="Wmk6tMrm4fZrb0cnK4M--57">
          <mxGeometry relative="1" as="geometry"/>
        </mxCell>
        <mxCell id="Wmk6tMrm4fZrb0cnK4M--38" value="Free game resources" style="rounded=1;whiteSpace=wrap;html=1;absoluteArcSize=1;arcSize=14;strokeWidth=2;" vertex="1" parent="1">
          <mxGeometry x="120" y="770" width="100" height="60" as="geometry"/>
        </mxCell>
        <mxCell id="Wmk6tMrm4fZrb0cnK4M--45" value="" style="edgeStyle=orthogonalEdgeStyle;rounded=0;orthogonalLoop=1;jettySize=auto;html=1;" edge="1" parent="1" source="Wmk6tMrm4fZrb0cnK4M--43" target="Wmk6tMrm4fZrb0cnK4M--44">
          <mxGeometry relative="1" as="geometry"/>
        </mxCell>
        <mxCell id="Wmk6tMrm4fZrb0cnK4M--43" value="Update game state" style="verticalLabelPosition=bottom;verticalAlign=top;html=1;shape=mxgraph.flowchart.on-page_reference;" vertex="1" parent="1">
          <mxGeometry x="540" y="-20" width="60" height="60" as="geometry"/>
        </mxCell>
        <mxCell id="Wmk6tMrm4fZrb0cnK4M--50" style="edgeStyle=orthogonalEdgeStyle;rounded=0;orthogonalLoop=1;jettySize=auto;html=1;" edge="1" parent="1" source="Wmk6tMrm4fZrb0cnK4M--44" target="Wmk6tMrm4fZrb0cnK4M--46">
          <mxGeometry relative="1" as="geometry"/>
        </mxCell>
        <mxCell id="Wmk6tMrm4fZrb0cnK4M--44" value="Change direction of player according to input" style="whiteSpace=wrap;html=1;verticalAlign=top;" vertex="1" parent="1">
          <mxGeometry x="510" y="80" width="120" height="60" as="geometry"/>
        </mxCell>
        <mxCell id="Wmk6tMrm4fZrb0cnK4M--56" style="edgeStyle=orthogonalEdgeStyle;rounded=0;orthogonalLoop=1;jettySize=auto;html=1;" edge="1" parent="1" source="Wmk6tMrm4fZrb0cnK4M--46" target="Wmk6tMrm4fZrb0cnK4M--54">
          <mxGeometry relative="1" as="geometry"/>
        </mxCell>
        <mxCell id="Wmk6tMrm4fZrb0cnK4M--46" value="Update player's position" style="whiteSpace=wrap;html=1;verticalAlign=top;" vertex="1" parent="1">
          <mxGeometry x="510" y="180" width="120" height="40" as="geometry"/>
        </mxCell>
        <mxCell id="Wmk6tMrm4fZrb0cnK4M--61" style="edgeStyle=orthogonalEdgeStyle;rounded=0;orthogonalLoop=1;jettySize=auto;html=1;entryX=0.5;entryY=0;entryDx=0;entryDy=0;entryPerimeter=0;" edge="1" parent="1" source="Wmk6tMrm4fZrb0cnK4M--54" target="Wmk6tMrm4fZrb0cnK4M--79">
          <mxGeometry relative="1" as="geometry">
            <mxPoint x="720" y="715" as="targetPoint"/>
          </mxGeometry>
        </mxCell>
        <mxCell id="Wmk6tMrm4fZrb0cnK4M--62" value="Yes" style="edgeLabel;html=1;align=center;verticalAlign=middle;resizable=0;points=[];" vertex="1" connectable="0" parent="Wmk6tMrm4fZrb0cnK4M--61">
          <mxGeometry x="-0.8854" y="-3" relative="1" as="geometry">
            <mxPoint x="11" y="-3" as="offset"/>
          </mxGeometry>
        </mxCell>
        <mxCell id="Wmk6tMrm4fZrb0cnK4M--67" style="edgeStyle=orthogonalEdgeStyle;rounded=0;orthogonalLoop=1;jettySize=auto;html=1;entryX=0.5;entryY=0;entryDx=0;entryDy=0;entryPerimeter=0;" edge="1" parent="1" source="Wmk6tMrm4fZrb0cnK4M--54" target="Wmk6tMrm4fZrb0cnK4M--66">
          <mxGeometry relative="1" as="geometry"/>
        </mxCell>
        <mxCell id="Wmk6tMrm4fZrb0cnK4M--54" value="did player collide with screen borders?" style="rhombus;whiteSpace=wrap;html=1;" vertex="1" parent="1">
          <mxGeometry x="530" y="270" width="80" height="80" as="geometry"/>
        </mxCell>
        <mxCell id="Wmk6tMrm4fZrb0cnK4M--57" value="" style="strokeWidth=2;html=1;shape=mxgraph.flowchart.terminator;whiteSpace=wrap;" vertex="1" parent="1">
          <mxGeometry x="120" y="860" width="100" height="60" as="geometry"/>
        </mxCell>
        <mxCell id="Wmk6tMrm4fZrb0cnK4M--63" value="" style="strokeWidth=2;html=1;shape=mxgraph.flowchart.terminator;whiteSpace=wrap;" vertex="1" parent="1">
          <mxGeometry x="520" y="860" width="100" height="60" as="geometry"/>
        </mxCell>
        <mxCell id="Wmk6tMrm4fZrb0cnK4M--69" style="edgeStyle=orthogonalEdgeStyle;rounded=0;orthogonalLoop=1;jettySize=auto;html=1;" edge="1" parent="1" source="Wmk6tMrm4fZrb0cnK4M--66" target="Wmk6tMrm4fZrb0cnK4M--68">
          <mxGeometry relative="1" as="geometry"/>
        </mxCell>
        <mxCell id="Wmk6tMrm4fZrb0cnK4M--66" value="For each apple" style="strokeWidth=2;html=1;shape=mxgraph.flowchart.loop_limit;whiteSpace=wrap;" vertex="1" parent="1">
          <mxGeometry x="520" y="390" width="100" height="60" as="geometry"/>
        </mxCell>
        <mxCell id="Wmk6tMrm4fZrb0cnK4M--71" style="edgeStyle=orthogonalEdgeStyle;rounded=0;orthogonalLoop=1;jettySize=auto;html=1;entryX=0.5;entryY=0;entryDx=0;entryDy=0;" edge="1" parent="1" source="Wmk6tMrm4fZrb0cnK4M--68" target="Wmk6tMrm4fZrb0cnK4M--70">
          <mxGeometry relative="1" as="geometry"/>
        </mxCell>
        <mxCell id="Wmk6tMrm4fZrb0cnK4M--68" value="Did player collide with apple?" style="strokeWidth=2;html=1;shape=mxgraph.flowchart.decision;whiteSpace=wrap;" vertex="1" parent="1">
          <mxGeometry x="520" y="480" width="100" height="100" as="geometry"/>
        </mxCell>
        <mxCell id="Wmk6tMrm4fZrb0cnK4M--73" style="edgeStyle=orthogonalEdgeStyle;rounded=0;orthogonalLoop=1;jettySize=auto;html=1;entryX=0.5;entryY=0;entryDx=0;entryDy=0;entryPerimeter=0;" edge="1" parent="1" source="Wmk6tMrm4fZrb0cnK4M--70" target="Wmk6tMrm4fZrb0cnK4M--72">
          <mxGeometry relative="1" as="geometry"/>
        </mxCell>
        <mxCell id="Wmk6tMrm4fZrb0cnK4M--70" value="Disable apple &amp;amp; increase score counter" style="rounded=1;whiteSpace=wrap;html=1;absoluteArcSize=1;arcSize=14;strokeWidth=2;" vertex="1" parent="1">
          <mxGeometry x="520" y="600" width="100" height="50" as="geometry"/>
        </mxCell>
        <mxCell id="Wmk6tMrm4fZrb0cnK4M--74" style="edgeStyle=orthogonalEdgeStyle;rounded=0;orthogonalLoop=1;jettySize=auto;html=1;entryX=0.5;entryY=0;entryDx=0;entryDy=0;entryPerimeter=0;" edge="1" parent="1" source="Wmk6tMrm4fZrb0cnK4M--72" target="Wmk6tMrm4fZrb0cnK4M--79">
          <mxGeometry relative="1" as="geometry">
            <mxPoint x="660" y="740" as="targetPoint"/>
          </mxGeometry>
        </mxCell>
        <mxCell id="Wmk6tMrm4fZrb0cnK4M--75" value="No" style="edgeLabel;html=1;align=center;verticalAlign=middle;resizable=0;points=[];" vertex="1" connectable="0" parent="Wmk6tMrm4fZrb0cnK4M--74">
          <mxGeometry x="-0.25" y="-1" relative="1" as="geometry">
            <mxPoint x="-52" y="-1" as="offset"/>
          </mxGeometry>
        </mxCell>
        <mxCell id="Wmk6tMrm4fZrb0cnK4M--76" style="edgeStyle=orthogonalEdgeStyle;rounded=0;orthogonalLoop=1;jettySize=auto;html=1;entryX=0.5;entryY=0;entryDx=0;entryDy=0;entryPerimeter=0;" edge="1" parent="1" source="Wmk6tMrm4fZrb0cnK4M--72" target="Wmk6tMrm4fZrb0cnK4M--63">
          <mxGeometry relative="1" as="geometry"/>
        </mxCell>
        <mxCell id="Wmk6tMrm4fZrb0cnK4M--77" value="Yes" style="edgeLabel;html=1;align=center;verticalAlign=middle;resizable=0;points=[];" vertex="1" connectable="0" parent="Wmk6tMrm4fZrb0cnK4M--76">
          <mxGeometry x="-0.5381" y="-1" relative="1" as="geometry">
            <mxPoint as="offset"/>
          </mxGeometry>
        </mxCell>
        <mxCell id="Wmk6tMrm4fZrb0cnK4M--72" value="Are there more apples?" style="strokeWidth=2;html=1;shape=mxgraph.flowchart.decision;whiteSpace=wrap;" vertex="1" parent="1">
          <mxGeometry x="520" y="690" width="100" height="100" as="geometry"/>
        </mxCell>
        <mxCell id="Wmk6tMrm4fZrb0cnK4M--79" value="Finish game loop" style="strokeWidth=2;html=1;shape=mxgraph.flowchart.terminator;whiteSpace=wrap;" vertex="1" parent="1">
          <mxGeometry x="670" y="860" width="100" height="60" as="geometry"/>
        </mxCell>
      </root>
    </mxGraphModel>
  </diagram>
</mxfile>